HIERARCHY
ROOT Hips
{
	OFFSET 0.000000 0.000000 0.000000
	CHANNELS 6 Xposition Yposition Zposition Xrotation Yrotation Zrotation
	JOINT LeftUpLeg_virtual
	{
		OFFSET 0.000000 0.000000 0.000000
		CHANNELS 3 Xrotation Yrotation Zrotation
		JOINT LeftUpLeg
		{
			OFFSET 13.026900 -6.336304 -1.092800
			CHANNELS 3 Xrotation Yrotation Zrotation
			JOINT LeftLeg
			{
				OFFSET 0.524474 -46.096886 9.782700
				CHANNELS 3 Xrotation Yrotation Zrotation
				JOINT LeftFoot
				{
					OFFSET -0.524474 -53.427422 -12.948200
					CHANNELS 3 Xrotation Yrotation Zrotation
					JOINT LeftToeBase
					{
						OFFSET 0.192200 -14.009700 16.364100
						CHANNELS 3 Xrotation Yrotation Zrotation
						JOINT LeftToe_End
						{
							OFFSET -1.784700 -0.561700 9.474800
							CHANNELS 3 Xrotation Yrotation Zrotation
							End Site
							{
								OFFSET 0 0 0
							}
						}
					}
				}
			}
		}
	}
	JOINT RightUpLeg_virtual
	{
		OFFSET 0.000000 0.000000 0.000000
		CHANNELS 3 Xrotation Yrotation Zrotation
		JOINT RightUpLeg
		{
			OFFSET -12.883000 -6.336304 -1.092800
			CHANNELS 3 Xrotation Yrotation Zrotation
			JOINT RightLeg
			{
				OFFSET -0.524587 -46.096825 9.782800
				CHANNELS 3 Xrotation Yrotation Zrotation
				JOINT RightFoot
				{
					OFFSET 0.524587 -53.427383 -12.948300
					CHANNELS 3 Xrotation Yrotation Zrotation
					JOINT RightToeBase
					{
						OFFSET -0.192200 -14.009700 16.364100
						CHANNELS 3 Xrotation Yrotation Zrotation
						JOINT RightToe_End
						{
							OFFSET 1.784700 -0.561700 9.474800
							CHANNELS 3 Xrotation Yrotation Zrotation
							End Site
							{
								OFFSET 0 0 0
							}
						}
					}
				}
			}
		}
	}
	JOINT Spine_virtual
	{
		OFFSET 0.000000 0.000000 0.000000
		CHANNELS 3 Xrotation Yrotation Zrotation
		JOINT Spine
		{
			OFFSET 0.072000 7.257294 -0.789700
			CHANNELS 3 Xrotation Yrotation Zrotation
			JOINT Spine1
			{
				OFFSET 0.000000 12.508769 -0.658067
				CHANNELS 3 Xrotation Yrotation Zrotation
				JOINT Spine1_split
				{
					OFFSET 0.000000 12.508769 -0.658067
					CHANNELS 3 Xrotation Yrotation Zrotation
					JOINT Spine2
					{
						OFFSET 0.000000 12.508769 -0.658067
						CHANNELS 3 Xrotation Yrotation Zrotation
						JOINT Neck_virtual
						{
							OFFSET 0.000000 0.000000 0.000000
							CHANNELS 3 Xrotation Yrotation Zrotation
							JOINT Neck
							{
								OFFSET 0.000000 14.033295 7.520400
								CHANNELS 3 Xrotation Yrotation Zrotation
								JOINT Head
								{
									OFFSET 0.000000 8.198502 5.703100
									CHANNELS 3 Xrotation Yrotation Zrotation
									JOINT HeadTop_End
									{
										OFFSET 0.000000 17.760803 13.332701
										CHANNELS 3 Xrotation Yrotation Zrotation
										End Site
										{
											OFFSET 0 0 0
										}
									}
								}
							}
						}
						JOINT LeftShoulder_virtual
						{
							OFFSET 0.000000 0.000000 0.000000
							CHANNELS 3 Xrotation Yrotation Zrotation
							JOINT LeftShoulder
							{
								OFFSET 6.292450 5.785301 -0.669000
								CHANNELS 3 Xrotation Yrotation Zrotation
								JOINT LeftShoulder_split
								{
									OFFSET 6.292450 5.785301 -0.669000
									CHANNELS 3 Xrotation Yrotation Zrotation
									JOINT LeftArm
									{
										OFFSET 13.907140 -6.093903 1.965100
										CHANNELS 3 Xrotation Yrotation Zrotation
										JOINT LeftForeArm
										{
											OFFSET 34.140198 0.000000 0.000000
											CHANNELS 3 Xrotation Yrotation Zrotation
											JOINT LeftHand
											{
												OFFSET 40.960209 0.000000 0.000000
												CHANNELS 3 Xrotation Yrotation Zrotation
												End Site
												{
													OFFSET 0 0 0
												}
											}
										}
									}
								}
							}
						}
						JOINT RightShoulder_virtual
						{
							OFFSET 0.000000 0.000000 0.000000
							CHANNELS 3 Xrotation Yrotation Zrotation
							JOINT RightShoulder
							{
								OFFSET -6.292450 5.785301 -0.669000
								CHANNELS 3 Xrotation Yrotation Zrotation
								JOINT RightShoulder_split
								{
									OFFSET -6.292450 5.785301 -0.669000
									CHANNELS 3 Xrotation Yrotation Zrotation
									JOINT RightArm
									{
										OFFSET -13.907140 -6.093903 1.965100
										CHANNELS 3 Xrotation Yrotation Zrotation
										JOINT RightForeArm
										{
											OFFSET -34.140198 0.000000 0.000000
											CHANNELS 3 Xrotation Yrotation Zrotation
											JOINT RightHand
											{
												OFFSET -40.960209 0.000000 0.000000
												CHANNELS 3 Xrotation Yrotation Zrotation
												End Site
												{
													OFFSET 0 0 0
												}
											}
										}
									}
								}
							}
						}
					}
				}
			}
		}
	}
}
MOTION
Frames: 11
Frame Time: 0.03333333
-1.070071 100.135414 1.127991 0.000000 0.000000 0.000000 -0.526914 -61.948463 4.001373 -32.901755 12.093654 24.266825 39.133337 -4.493263 -8.359288 -6.103916 -4.286899 -8.043622 -0.138741 0.839928 1.086359 0.000000 0.000000 0.000000 -3.709039 -60.744301 2.552824 -29.319594 -12.464933 -24.425134 39.891535 0.897775 -7.449291 -13.751653 4.089996 23.273586 -0.805087 -0.267767 -0.580802 0.000000 0.000000 0.000000 -3.704065 -61.077737 0.607928 12.476959 2.500085 -2.889168 8.155572 0.660483 -5.538399 0.244305 -0.158240 1.195905 0.000000 0.000000 0.000000 7.994487 0.313559 -4.332478 -20.931523 20.788630 9.492897 3.000129 27.044919 -2.094299 0.000000 0.000000 0.000000 9.960532 0.276267 -4.909050 -5.223219 -16.249399 -1.689827 -1.914081 -3.819091 1.186933 -23.580663 9.465201 -32.445984 4.213401 -42.237705 0.304365 0.000000 0.000000 0.000000 9.389503 0.571233 -5.405163 -5.358507 14.190401 1.639212 3.730483 -2.925036 3.436648 -32.518148 -22.507229 35.351355 164.856205 69.362210 -161.808930 0.000000 0.000000 0.000000 
-1.569208 99.824356 1.501316 0.000000 0.000000 0.000000 -0.859979 -61.660236 3.659114 -32.617702 12.589903 24.357025 39.612157 -5.122733 -8.239894 -7.000360 -4.334748 -8.266463 -0.513913 0.783284 1.211808 0.000000 0.000000 0.000000 -4.131310 -60.574380 2.043079 -28.876220 -12.021444 -24.434828 41.026723 0.880567 -7.505155 -14.583540 3.820928 22.464764 0.191168 -0.273103 -0.489474 0.000000 0.000000 0.000000 -3.860872 -61.048012 0.533468 12.487478 2.296532 -2.836712 7.907087 0.648178 -5.545846 -0.602363 -0.848871 1.743523 0.000000 0.000000 0.000000 7.729950 0.300936 -4.338126 -20.896781 20.206336 9.802278 3.306062 26.037233 -1.996796 0.000000 0.000000 0.000000 9.685121 0.289628 -4.900551 -5.210822 -15.981673 -1.651904 -0.393649 -5.151038 0.927476 -24.965113 9.390818 -33.528996 5.486649 -41.929114 1.417565 0.000000 0.000000 0.000000 8.997833 0.562250 -5.362540 -5.449013 14.123964 1.551639 4.993947 -2.531430 1.630947 -30.891945 -21.776260 35.306853 167.043587 66.129250 -164.001489 0.000000 0.000000 0.000000 
-2.436816 99.486694 1.996929 0.000000 0.000000 0.000000 -2.082104 -61.354606 2.370273 -32.038092 12.773576 24.568484 40.666953 -5.990324 -8.053426 -8.546698 -4.023824 -8.407317 -0.939264 0.777262 1.306402 0.000000 0.000000 0.000000 -4.969951 -60.270477 0.878316 -27.356753 -11.406722 -24.517953 42.288515 1.110334 -7.625154 -15.611748 3.438640 22.282678 0.237197 -0.387679 -0.446084 0.000000 0.000000 0.000000 -4.754300 -60.737191 -0.411793 12.342452 2.175832 -2.557364 7.525104 0.692317 -5.315062 -0.770115 -0.924392 2.114884 0.000000 0.000000 0.000000 7.264646 0.316445 -4.193190 -19.954136 19.165553 10.075420 3.315619 24.500621 -1.428540 0.000000 0.000000 0.000000 9.165086 0.345228 -4.655017 -5.142706 -14.842568 -1.123555 0.538221 -5.675932 0.349102 -24.983739 9.714902 -32.827098 6.693897 -44.569512 3.017899 0.000000 0.000000 0.000000 8.395120 0.533567 -5.108996 -5.489882 12.847122 0.682907 6.620987 -2.248399 0.472776 -25.379747 -20.268105 35.653376 163.158671 62.418981 -160.531015 0.000000 0.000000 0.000000 
-3.542483 99.395477 2.530506 0.000000 0.000000 0.000000 -3.953030 -61.039994 0.395035 -30.953867 12.654720 24.655362 41.574026 -6.946117 -7.795349 -10.256496 -3.449374 -8.391393 -1.525990 0.814492 1.392060 0.000000 0.000000 0.000000 -6.085202 -59.696755 -0.693717 -24.752599 -10.930610 -24.687896 42.844885 1.463444 -7.734480 -16.544702 2.908605 22.564090 -0.368471 -0.570456 -0.431212 0.000000 0.000000 0.000000 -6.023555 -60.058967 -1.940793 12.092257 2.130156 -2.148785 7.063018 0.767261 -4.879681 -0.125511 -0.401027 2.264600 0.000000 0.000000 0.000000 6.670396 0.373590 -3.892255 -18.196548 17.821161 10.298546 3.136781 22.798847 -0.630393 0.000000 0.000000 0.000000 8.427787 0.454047 -4.167628 -5.095130 -12.756531 -0.154342 0.898329 -5.486297 0.007552 -23.277918 11.021262 -30.248200 7.671160 -50.282005 4.849688 0.000000 0.000000 0.000000 7.642219 0.493422 -4.663073 -5.583067 10.369033 -0.819859 7.873792 -2.080763 -0.269035 -17.509443 -18.447197 36.490234 155.596327 59.441381 -153.843358 0.000000 0.000000 0.000000 
-4.753730 99.825890 3.277565 0.000000 0.000000 0.000000 -6.071854 -60.727758 -1.886992 -29.133851 12.339964 24.456694 41.617347 -7.865613 -7.432290 -11.734881 -2.705492 -8.127092 -2.172067 0.868789 1.430673 0.000000 0.000000 0.000000 -7.257514 -58.922321 -2.319372 -21.024856 -10.864119 -24.766105 41.748230 1.680715 -7.686951 -17.112826 2.271719 22.889193 -0.785033 -0.777780 -0.464512 0.000000 0.000000 0.000000 -7.427966 -59.161610 -3.735080 11.735925 2.087348 -1.712206 6.503068 0.837786 -4.292127 1.038175 0.282976 2.095034 0.000000 0.000000 0.000000 6.015901 0.442683 -3.450131 -15.597727 16.482940 10.357660 2.934000 21.156929 0.153385 0.000000 0.000000 0.000000 7.557483 0.558818 -3.474863 -5.192541 -9.782115 1.048664 0.575713 -4.557592 -0.438542 -20.328704 13.569343 -25.913449 7.698492 -58.605789 6.144296 0.000000 0.000000 0.000000 6.720785 0.447286 -4.035809 -5.834963 6.858916 -2.759065 8.027289 -2.485443 -0.194718 -9.177958 -16.519654 37.521091 145.555416 57.513328 -145.145358 0.000000 0.000000 0.000000 
-6.018953 101.008057 4.216686 0.000000 0.000000 0.000000 -8.004492 -60.257261 -4.012816 -26.625225 11.995309 23.955799 40.502158 -8.646447 -6.910215 -12.580176 -1.918399 -7.644801 -2.534605 0.940875 1.341820 0.000000 0.000000 0.000000 -8.368813 -57.986639 -3.842118 -16.404275 -11.417772 -24.458259 38.429578 1.578724 -7.361869 -17.060216 1.624779 22.934563 -0.608360 -0.947879 -0.580467 0.000000 0.000000 0.000000 -8.667171 -58.036555 -5.397601 11.197094 1.965190 -1.326431 5.798867 0.844177 -3.634032 1.342219 0.851905 1.630669 0.000000 0.000000 0.000000 5.418897 0.496889 -2.922006 -12.206119 15.360257 10.125183 2.781869 19.702289 0.731006 0.000000 0.000000 0.000000 6.654275 0.634222 -2.669608 -5.507426 -6.120687 2.412264 0.147180 -3.146169 -0.810880 -17.198256 17.563101 -20.156911 5.228697 -68.012066 5.160481 0.000000 0.000000 0.000000 5.710323 0.356583 -3.281339 -6.335323 2.455116 -4.970479 7.244327 -3.159638 0.186966 -2.077680 -14.817078 38.496838 134.688257 55.955850 -135.844458 0.000000 0.000000 0.000000 
-7.415223 102.895905 5.281067 0.000000 0.000000 0.000000 -9.457189 -59.555370 -5.752050 -23.651137 11.675414 23.289039 38.199175 -9.470667 -6.217304 -12.311466 -1.256944 -7.255698 -2.619308 1.038354 1.092633 0.000000 0.000000 0.000000 -9.127871 -56.867752 -5.100603 -11.191594 -12.577999 -23.371053 33.147700 1.048822 -6.798483 -16.169730 1.103505 22.510142 -0.394104 -1.015211 -0.848182 0.000000 0.000000 0.000000 -9.473110 -56.665097 -6.650498 10.494803 1.723159 -0.976792 4.981146 0.779054 -2.967936 1.175923 0.611078 1.303409 0.000000 0.000000 0.000000 4.934429 0.502834 -2.352833 -8.237333 14.561799 9.552170 2.600491 18.446890 1.027918 0.000000 0.000000 0.000000 5.779907 0.644490 -1.842466 -5.987367 -2.116268 4.073653 -0.059887 -2.277954 -0.575964 -14.989830 23.108188 -13.381420 -3.528946 -76.461755 -2.169676 0.000000 0.000000 0.000000 4.714258 0.195523 -2.507950 -7.113818 -2.565501 -7.279738 6.142865 -3.620209 0.418545 3.409657 -13.602006 39.232268 125.179937 54.229646 -127.593125 0.000000 0.000000 0.000000 
-8.846946 105.281990 6.398327 0.000000 0.000000 0.000000 -10.226560 -58.638670 -6.994699 -20.668830 11.348101 22.599458 34.949491 -10.353598 -5.443279 -10.944079 -0.765784 -7.032307 -2.662170 1.148986 0.702980 0.000000 0.000000 0.000000 -9.446958 -55.662883 -6.060368 -5.759802 -13.885591 -21.329810 26.858739 0.315791 -6.152648 -14.461741 0.967493 21.790559 -0.789015 -0.958703 -1.305038 0.000000 0.000000 0.000000 -9.853884 -55.213600 -7.497988 9.723176 1.390155 -0.613921 4.114733 0.673354 -2.336022 0.887779 -0.257861 0.841767 0.000000 0.000000 0.000000 4.550086 0.461340 -1.812288 -4.030612 14.067297 8.553699 2.117718 17.349022 1.088685 0.000000 0.000000 0.000000 4.995462 0.545204 -1.100889 -6.595225 1.867749 6.097156 -0.033054 -1.628593 0.225149 -14.538172 29.352174 -6.210361 -25.041639 -81.310793 -22.528870 0.000000 0.000000 0.000000 3.825203 -0.037249 -1.824082 -8.107553 -7.787005 -9.495204 5.385029 -3.793438 0.481944 7.617717 -12.985937 39.285011 118.265736 52.640159 -121.105237 0.000000 0.000000 0.000000 
-10.289470 107.789581 7.340542 0.000000 0.000000 0.000000 -10.370115 -57.636401 -7.740004 -18.211892 10.942319 22.071712 31.379894 -11.094011 -4.778729 -8.722401 -0.430348 -6.721919 -2.796523 1.264121 0.210789 0.000000 0.000000 0.000000 -9.272635 -54.238546 -6.666470 -0.604458 -14.828614 -18.613515 20.788019 -0.195136 -5.583117 -12.149979 1.452301 20.978076 -2.086295 -0.744072 -1.884131 0.000000 0.000000 0.000000 -9.838834 -53.692431 -7.971714 8.982039 1.085917 -0.192712 3.326238 0.586545 -1.765053 0.536791 -0.709826 0.479981 0.000000 0.000000 0.000000 4.292765 0.393342 -1.343752 -0.081133 13.658239 7.186236 0.968757 16.404970 1.076099 0.000000 0.000000 0.000000 4.359079 0.417207 -0.508230 -7.301255 5.698129 8.459716 0.007552 -1.131050 1.200615 -16.121972 35.131652 0.831869 -45.759337 -81.821486 -42.415707 0.000000 0.000000 0.000000 3.199590 -0.282686 -1.267814 -9.152834 -12.700059 -11.266768 5.266114 -3.809299 -0.038694 10.836075 -13.523816 38.624508 113.602104 51.868132 -115.752022 0.000000 0.000000 0.000000 
-11.698444 110.054794 8.116966 0.000000 0.000000 0.000000 -10.176632 -56.609089 -8.165267 -16.581439 10.386926 21.870566 28.162873 -11.624005 -4.366762 -6.045759 -0.253998 -6.189713 -3.036957 1.372651 -0.352682 0.000000 0.000000 0.000000 -8.760799 -52.794821 -6.956359 3.754935 -14.968416 -15.707227 16.146948 -0.161904 -5.191519 -9.520558 2.555318 20.164180 -4.485442 -0.399168 -2.484219 0.000000 0.000000 0.000000 -9.387383 -52.129735 -8.072395 8.436750 0.921282 0.282466 2.748036 0.590867 -1.245921 0.804740 -0.927573 0.414058 0.000000 0.000000 0.000000 4.150501 0.382031 -0.972161 3.253639 13.131840 5.707619 -1.033186 15.458310 1.177693 0.000000 0.000000 0.000000 3.941131 0.337589 -0.063743 -8.109260 9.370162 11.099226 -0.112611 -0.701630 1.770413 -19.752598 39.621651 7.536976 -46.732400 -80.661290 -42.802736 0.000000 0.000000 0.000000 2.853357 -0.422476 -0.844392 -10.127469 -16.906135 -12.431196 5.477322 -3.735405 -0.482458 12.638547 -15.538206 37.007993 110.255693 52.275802 -110.782827 0.000000 0.000000 0.000000 
-12.921549 111.705475 8.657467 0.000000 0.000000 0.000000 -9.741506 -55.448524 -8.233522 -16.027800 9.805875 21.987014 26.054166 -11.838704 -4.296522 -3.445084 -0.165518 -5.338693 -3.305240 1.470767 -0.957073 0.000000 0.000000 0.000000 -8.211078 -51.348771 -6.997383 6.946764 -14.105620 -13.231495 13.772807 0.639868 -5.064701 -6.983495 4.143224 19.457317 -7.983350 0.022524 -3.009641 0.000000 0.000000 0.000000 -8.654464 -50.373209 -7.836541 8.139618 0.957492 0.785540 2.431486 0.724521 -0.797409 1.018502 -0.751865 0.326104 0.000000 0.000000 0.000000 4.130568 0.495333 -0.728998 5.877766 12.318202 4.339525 -3.755751 14.295114 1.507994 0.000000 0.000000 0.000000 3.710976 0.431617 0.233067 -8.973931 12.769507 13.620547 -0.385152 -0.326180 1.937039 -25.281482 42.674206 13.833574 -36.388830 -78.964650 -31.905504 0.000000 0.000000 0.000000 2.749572 -0.375987 -0.556836 -10.885979 -20.312617 -12.810911 5.793702 -3.547010 -0.807629 11.655279 -19.468242 34.315355 108.925876 54.328366 -107.404192 0.000000 0.000000 0.000000 
